<?xml version="1.0" standalone="no"?>
<!DOCTYPE svg PUBLIC "-//W3C//DTD SVG 1.1//EN" "http://www.w3.org/Graphics/SVG/1.1/DTD/svg11.dtd" >
<svg xmlns="http://www.w3.org/2000/svg">
<metadata></metadata>
<defs>
<font id="formularblack" horiz-adv-x="643" >
<font-face units-per-em="2048" ascent="1638" descent="-410" />
<missing-glyph horiz-adv-x="569" />
<glyph horiz-adv-x="0" />
<glyph horiz-adv-x="682" />
<glyph horiz-adv-x="0" />
<glyph horiz-adv-x="0" />
<glyph unicode="&#xd;" horiz-adv-x="569" />
<glyph unicode=" "  horiz-adv-x="569" />
<glyph unicode="&#x09;" horiz-adv-x="569" />
<glyph unicode="&#xa0;" horiz-adv-x="569" />
<glyph unicode="!" horiz-adv-x="745" d="M184 0v356h377v-356h-377zM195 874v588h356v-588l-66 -401h-225z" />
<glyph unicode="&#x22;" horiz-adv-x="1052" d="M141 834v628h316v-628h-316zM596 834v628h315v-628h-315z" />
<glyph unicode="#" horiz-adv-x="1370" d="M59 352v262h238l33 205h-209v262h250l57 353h268l-55 -353h205l57 353h268l-55 -353h195v-262h-238l-31 -205h207v-262h-248l-55 -352h-272l55 352h-203l-55 -352h-272l55 352h-195zM567 614h205l33 205h-207z" />
<glyph unicode="$" horiz-adv-x="1366" d="M86 473h360q10 -75 53.5 -122t106.5 -60v301l-108 20q-184 35 -277.5 137t-93.5 263q0 179 127 305t352 143v174h148v-178q196 -21 325.5 -138.5t149.5 -301.5h-361q-7 47 -39.5 82.5t-76.5 46.5v-264l104 -19q87 -15 158 -46t128 -80.5t88.5 -125t31.5 -170.5 q0 -89 -31.5 -168t-92.5 -143t-161 -105t-227 -49v-176h-144v178q-240 18 -369.5 146.5t-150.5 349.5zM489 1028q0 -100 117 -123v246q-52 -8 -84.5 -41t-32.5 -82zM752 285q67 6 107 42.5t40 92.5q0 111 -147 145v-280z" />
<glyph unicode="%" horiz-adv-x="1802" d="M63 1073q0 173 89.5 281t257.5 108q170 0 259 -107.5t89 -281.5q0 -173 -88.5 -279t-259.5 -106q-169 0 -258 106t-89 279zM283 1073q0 -192 127 -192q66 0 97.5 51.5t31.5 140.5q0 91 -31.5 144t-97.5 53q-127 0 -127 -197zM348 0l869 1434h237l-866 -1434h-240z M1044 358q0 173 89.5 281.5t257.5 108.5q170 0 259 -108t89 -282q0 -173 -88.5 -279t-259.5 -106q-169 0 -258 106t-89 279zM1264 358q0 -192 127 -192q66 0 97.5 51.5t31.5 140.5q0 91 -31.5 144t-97.5 53q-127 0 -127 -197z" />
<glyph unicode="&#x26;" horiz-adv-x="1630" d="M100 416q0 123 69 221.5t159 150.5v58q-53 67 -78 125t-25 137q0 158 111.5 256t298.5 98t308.5 -95.5t121.5 -258.5q0 -103 -61 -184.5t-179 -161.5l195 -199q47 79 65 191h340q-35 -234 -168 -420l332 -334h-422l-94 96h-57q-175 -123 -400 -123q-234 0 -375 120 t-141 323zM451 428q0 -64 50 -108t138 -44q99 0 188 62l-260 260l-28 -20q-88 -58 -88 -150zM535 1104q0 -34 17.5 -68.5t33.5 -52.5t45 -45q41 30 64 50.5t43 53t20 66.5q0 47 -31 74.5t-82 27.5q-49 0 -79.5 -28t-30.5 -78z" />
<glyph unicode="'" horiz-adv-x="598" d="M141 834v628h316v-628h-316z" />
<glyph unicode="(" horiz-adv-x="702" d="M84 633q0 535 319 921h293q-62 -92 -108 -174.5t-97 -200.5t-78.5 -257.5t-27.5 -288.5t27.5 -288.5t78.5 -258t97 -201t108 -174.5h-293q-319 386 -319 922z" />
<glyph unicode=")" horiz-adv-x="702" d="M6 -289q62 92 108 174.5t97 201t78.5 258t27.5 288.5t-27.5 288.5t-78.5 257.5t-97 200.5t-108 174.5h293q319 -386 319 -921q0 -536 -319 -922h-293z" />
<glyph unicode="*" horiz-adv-x="1042" d="M49 1034l74 226l293 -109l-13 311h238l-16 -311l295 109l73 -226l-303 -84l197 -243l-193 -142l-174 262l-172 -262l-190 142l194 243z" />
<glyph unicode="+" horiz-adv-x="1366" d="M152 449v301h380v380h299v-380h383v-301h-383v-381h-299v381h-380z" />
<glyph unicode="," d="M111 -324l184 267v57h-162v356h377v-413l-184 -267h-215z" />
<glyph unicode="-" horiz-adv-x="845" d="M92 434v305h662v-305h-662z" />
<glyph unicode="." d="M133 0v356h377v-356h-377z" />
<glyph unicode="/" horiz-adv-x="942" d="M-6 -289l618 1843h281l-612 -1843h-287z" />
<glyph unicode="0" horiz-adv-x="1351" d="M94 719q0 191 44.5 336t124 232.5t183.5 131t230 43.5q100 0 186.5 -26.5t159.5 -84.5t125 -144t81 -210t29 -278q0 -191 -44 -336.5t-124 -234t-183.5 -132t-229.5 -43.5t-230 43.5t-183.5 132t-124 234t-44.5 336.5zM461 719q0 -48 2 -86t8.5 -91.5t21 -93t37 -76.5 t60 -57t86.5 -20t86.5 20t60 57t37 76.5t21 93t8.5 91.5t2 86q0 41 -1 73t-6 78t-13.5 81t-24.5 72.5t-38.5 62t-56 40t-75.5 15.5t-75.5 -15.5t-56 -40t-38.5 -62t-24.5 -72.5t-13.5 -81t-6 -78t-1 -73z" />
<glyph unicode="1" horiz-adv-x="1126" d="M100 0v315h316v760h-58l-258 -178v356l256 181h424v-1119h285v-315h-965z" />
<glyph unicode="2" horiz-adv-x="1275" d="M96 979q11 232 154 357.5t399 125.5q233 0 374.5 -126t141.5 -351q0 -47 -11 -93t-27 -84.5t-45 -79.5t-54.5 -71.5t-66.5 -67t-70.5 -60.5t-76.5 -57t-74 -51t-74 -48v-58h534v-315h-1102v373l463 315q57 39 91 65t72.5 64.5t56.5 78.5t18 85q0 80 -44 123t-118 43 q-76 0 -123 -42t-53 -126h-365z" />
<glyph unicode="3" horiz-adv-x="1282" d="M55 457h367q12 -81 66 -125.5t141 -44.5q95 0 150 52.5t55 133.5q0 89 -53.5 143t-153.5 54q-69 0 -135 -17v275l229 145v57h-578v304h973v-361l-229 -145v-58q135 -24 224 -125t89 -272q0 -226 -159 -363t-414 -137q-253 0 -410 137t-162 347z" />
<glyph unicode="4" horiz-adv-x="1327" d="M70 293v369l622 772h393v-830h170v-311h-170v-293h-350v293h-665zM397 604h353v422h-58l-295 -364v-58z" />
<glyph unicode="5" horiz-adv-x="1314" d="M98 457h367q12 -80 61 -125t133 -45q95 0 148 58.5t53 148.5q0 106 -56.5 158.5t-144.5 52.5q-122 0 -190 -91h-334l64 820h925v-304h-645l-14 -223h57q44 35 99.5 55.5t146.5 20.5q90 0 173 -33.5t146.5 -94t101.5 -153t38 -202.5q0 -153 -74 -274.5t-200 -187 t-281 -65.5q-256 0 -409 135.5t-165 348.5z" />
<glyph unicode="6" horiz-adv-x="1310" d="M94 698q0 172 35.5 310t107 240.5t188 158t269.5 55.5q200 0 345.5 -117.5t166.5 -285.5h-364q-12 48 -50 79t-108 31q-102 0 -166.5 -73t-75.5 -232h58q88 101 278 101q194 0 328.5 -134t134.5 -342q0 -105 -39 -199t-109 -164.5t-174 -111.5t-227 -41q-104 0 -192 23.5 t-164 78t-129 137t-83 206t-30 280.5zM489 481q0 -99 53 -156t140 -57q88 0 140 55t52 156q0 100 -51.5 153.5t-140.5 53.5t-141 -52.5t-52 -152.5z" />
<glyph unicode="7" horiz-adv-x="1204" d="M92 1118v316h1022v-373l-545 -1061h-381l545 1061v57h-641z" />
<glyph unicode="8" horiz-adv-x="1320" d="M86 412q0 123 62 203t147 120v58q-160 92 -160 282q0 79 34.5 148.5t99.5 123t166.5 84.5t226.5 31q246 0 385 -111t139 -276q0 -190 -160 -282v-58q37 -18 70.5 -44t66.5 -64.5t52.5 -94t19.5 -120.5q0 -87 -36 -164.5t-104.5 -139.5t-180.5 -98.5t-252 -36.5 q-141 0 -253.5 36.5t-181.5 98.5t-105 139.5t-36 164.5zM451 446q0 -74 52 -126t159 -52q105 0 156.5 52t51.5 126q0 71 -52 125t-156 54q-106 0 -158.5 -54t-52.5 -125zM485 1030q0 -66 47 -113t130 -47t128.5 47t45.5 113q0 65 -45.5 112.5t-128.5 47.5t-130 -47.5 t-47 -112.5z" />
<glyph unicode="9" horiz-adv-x="1310" d="M70 946q0 105 39 199t108.5 164.5t173.5 111.5t227 41q104 0 192 -23.5t164.5 -78t129.5 -137t83 -206t30 -280.5q0 -172 -35.5 -310t-107.5 -240.5t-188.5 -158t-269.5 -55.5q-200 0 -345.5 118t-166.5 286h365q12 -48 50.5 -79.5t107.5 -31.5q102 0 166 73t75 232h-57 q-87 -100 -279 -100q-194 0 -328 133.5t-134 341.5zM436 956q0 -100 52 -153t141 -53t140.5 52t51.5 152q0 99 -52.5 156t-139.5 57q-88 0 -140.5 -55t-52.5 -156z" />
<glyph unicode=":" d="M133 0v356h377v-356h-377zM133 709v356h377v-356h-377z" />
<glyph unicode=";" d="M111 -324l184 267v57h-162v356h377v-413l-184 -267h-215zM133 709v356h377v-356h-377z" />
<glyph unicode="&#x3c;" horiz-adv-x="1337" d="M152 481v234l1034 471v-312l-553 -247v-58l553 -245v-314z" />
<glyph unicode="=" horiz-adv-x="1366" d="M152 233v302h1062v-302h-1062zM152 664v301h1062v-301h-1062z" />
<glyph unicode="&#x3e;" horiz-adv-x="1337" d="M152 10v314l553 245v58l-553 247v312l1034 -471v-234z" />
<glyph unicode="?" horiz-adv-x="1222" d="M61 993q0 99 32 186.5t95 157.5t166.5 111t235.5 41q139 0 245 -35.5t169 -98t94.5 -141t31.5 -170.5q0 -57 -14 -105t-34 -82t-56 -67.5t-66 -54.5t-77 -51q-74 -48 -102.5 -82.5t-28.5 -77.5v-51h-365v51q0 110 43 180t141 138q20 14 50 32.5t46.5 29t37 27t30.5 31 t17.5 35t7.5 45.5q0 58 -41 95t-117 37q-175 0 -178 -181h-363zM379 0v356h377v-356h-377z" />
<glyph unicode="@" horiz-adv-x="1996" d="M98 426q0 211 70 394.5t195.5 316t307.5 208.5t396 76q169 0 320 -54t264.5 -151.5t180 -242t66.5 -316.5t-51 -304t-158 -211t-257 -79q-215 0 -279 132h-35q-40 -57 -106 -94.5t-156 -37.5q-157 0 -243.5 99t-86.5 274q0 136 53.5 253t154.5 190t227 73q75 0 126 -28 t74 -68h35l16 68h283l-88 -523q-8 -31 -8 -82q0 -59 26.5 -84.5t79.5 -25.5q33 0 66 13.5t67.5 46.5t60 82t42 127.5t16.5 176.5q0 138 -48.5 255.5t-138 203t-223 134t-296.5 48.5q-172 0 -321 -62t-257.5 -173t-170.5 -274t-62 -357q0 -109 25 -209t79.5 -189t134 -154.5 t196.5 -103.5t259 -38q262 0 473 143l63 -110q-243 -158 -546 -158q-186 0 -340.5 59.5t-261 166.5t-165.5 258t-59 331zM829 451q0 -95 34 -135t85 -40q83 0 136 86t53 205q0 96 -35.5 135t-87.5 39q-82 0 -133.5 -85.5t-51.5 -204.5z" />
<glyph unicode="A" horiz-adv-x="1521" d="M35 0l438 1462h576l438 -1462h-379l-107 379h-491l-104 -379h-371zM592 678h326l-117 424h-90z" />
<glyph unicode="B" horiz-adv-x="1511" d="M158 0v1462h716q239 0 365.5 -112.5t126.5 -286.5q0 -95 -39.5 -169.5t-103.5 -111.5v-57q73 -36 127.5 -115.5t54.5 -179.5q0 -194 -127.5 -312t-380.5 -118h-739zM539 313h297q75 0 126.5 33t51.5 105q0 145 -172 145h-303v-283zM539 903h284q152 0 152 125 q0 67 -43.5 97t-112.5 30h-280v-252z" />
<glyph unicode="C" horiz-adv-x="1533" d="M94 731q0 228 83.5 398.5t245.5 265t384 94.5q253 0 416.5 -132t201.5 -347h-395q-18 71 -76.5 107t-146.5 36q-156 0 -240 -115.5t-84 -306.5q0 -190 84.5 -306t239.5 -116q100 0 163.5 49t76.5 140h391q-30 -236 -198 -380.5t-433 -144.5q-222 0 -384 94.5t-245.5 265 t-83.5 398.5z" />
<glyph unicode="D" horiz-adv-x="1581" d="M158 0v1462h651q329 0 503.5 -196.5t174.5 -534.5q0 -221 -75 -384t-229 -255t-374 -92h-651zM539 336h209q93 0 162 30.5t109.5 85.5t59.5 124.5t19 154.5q0 86 -19 155.5t-59.5 124.5t-109.5 85t-162 30h-209v-790z" />
<glyph unicode="E" horiz-adv-x="1382" d="M158 0v1462h1122v-336h-741v-217h565v-327h-565v-246h759v-336h-1140z" />
<glyph unicode="F" horiz-adv-x="1351" d="M158 0v1462h1118v-336h-737v-249h571v-328h-571v-549h-381z" />
<glyph unicode="G" horiz-adv-x="1579" d="M94 731q0 226 82.5 395.5t247 266t393.5 96.5q256 0 419 -128t204 -341h-393q-41 133 -232 133q-158 0 -245 -113.5t-87 -308.5q0 -198 88 -313t250 -115q126 0 199 64.5t78 167.5h-283v301h660v-187q0 -106 -23 -202.5t-74 -184t-126 -151t-187 -101t-248 -37.5 q-344 0 -533.5 205t-189.5 553z" />
<glyph unicode="H" horiz-adv-x="1619" d="M158 0v1462h381v-540h542v540h381v-1462h-381v580h-542v-580h-381z" />
<glyph unicode="I" horiz-adv-x="716" d="M168 0v1462h381v-1462h-381z" />
<glyph unicode="J" horiz-adv-x="1263" d="M47 479h379q6 -170 158 -170q73 0 109 53t36 150v950h381v-956q0 -253 -138.5 -393t-383.5 -140q-239 0 -388 133t-153 373z" />
<glyph unicode="K" horiz-adv-x="1587" d="M158 0v1462h381v-532l505 532h435l-414 -448l485 -1014h-409l-328 676h-57l-217 -225v-451h-381z" />
<glyph unicode="L" horiz-adv-x="1370" d="M158 0v1462h381v-1126h747v-336h-1128z" />
<glyph unicode="M" horiz-adv-x="1835" d="M158 0v1462h569l162 -530h57l162 530h569v-1462h-350v989h-57l-166 -526h-373l-166 526h-57v-989h-350z" />
<glyph unicode="N" horiz-adv-x="1622" d="M158 0v1462h456l455 -850h57v850h338v-1462h-456l-455 850h-57v-850h-338z" />
<glyph unicode="O" horiz-adv-x="1650" d="M94 731q0 163 48.5 301.5t139 240t230 159t313.5 57.5t313.5 -57.5t230 -159t139 -240t48.5 -301.5t-48.5 -301.5t-139 -240t-230 -159t-313.5 -57.5t-313.5 57.5t-230 159t-139 240t-48.5 301.5zM483 731q0 -191 88.5 -306.5t253.5 -115.5t253.5 115.5t88.5 306.5 t-88.5 306.5t-253.5 115.5q-166 0 -254 -115t-88 -307z" />
<glyph unicode="P" horiz-adv-x="1499" d="M158 0v1462h700q260 0 403.5 -126t143.5 -355q0 -232 -144 -360.5t-403 -128.5h-319v-492h-381zM539 817h270q110 0 158.5 39t48.5 119t-48.5 117.5t-158.5 37.5h-270v-313z" />
<glyph unicode="Q" horiz-adv-x="1650" d="M94 731q0 163 48.5 301.5t139 240t230 159t313.5 57.5t313.5 -57.5t230 -159t139 -240t48.5 -301.5q0 -379 -235 -588l180 -313h-327l-101 178q-116 -35 -248 -35q-174 0 -313.5 57.5t-230 159t-139 240t-48.5 301.5zM483 731q0 -191 88.5 -306.5t253.5 -115.5q41 0 76 6 l-209 379h318l112 -198q45 99 45 235q0 191 -88.5 306.5t-253.5 115.5q-166 0 -254 -115t-88 -307z" />
<glyph unicode="R" horiz-adv-x="1509" d="M158 0v1462h714q253 0 394 -125t141 -348q0 -278 -213 -401l211 -588h-381l-182 512h-303v-512h-381zM539 829h282q197 0 197 152q0 75 -46.5 112t-150.5 37h-282v-301z" />
<glyph unicode="S" horiz-adv-x="1445" d="M86 471h389q29 -180 273 -180q97 0 153.5 37.5t56.5 99.5q0 64 -41 94t-126 45l-275 45q-194 32 -290.5 139t-96.5 277q0 95 38.5 178.5t110 146.5t182 99.5t245.5 36.5q250 0 415 -120t185 -329h-390q-17 71 -70.5 101t-144.5 30q-81 0 -133.5 -32t-52.5 -95 q0 -51 35 -76t106 -36l269 -43q191 -31 304 -139t113 -299q0 -97 -37.5 -181.5t-110.5 -151.5t-192 -106t-270 -39q-290 0 -455.5 130.5t-189.5 367.5z" />
<glyph unicode="T" horiz-adv-x="1316" d="M31 1126v336h1255v-336h-438v-1126h-381v1126h-436z" />
<glyph unicode="U" horiz-adv-x="1581" d="M154 547v915h378v-907q0 -112 69 -179t190 -67t189.5 67t68.5 179v907h378v-915q0 -277 -166 -425.5t-473 -148.5q-304 0 -469 148.5t-165 425.5z" />
<glyph unicode="V" horiz-adv-x="1492" d="M35 1462h395l277 -1102h90l274 1102h387l-407 -1462h-607z" />
<glyph unicode="W" horiz-adv-x="1964" d="M102 1462h361l104 -1003h58l131 594h456l131 -594h58l104 1003h357l-168 -1462h-537l-145 705h-58l-145 -705h-539z" />
<glyph unicode="X" horiz-adv-x="1478" d="M37 0l381 766l-330 696h379l246 -508h57l252 508h377l-338 -690l381 -772h-410l-264 565h-57l-271 -565h-403z" />
<glyph unicode="Y" horiz-adv-x="1435" d="M27 1462h393l268 -532h57l267 532h397l-502 -964v-498h-381v500z" />
<glyph unicode="Z" horiz-adv-x="1390" d="M84 0v397l709 666v63h-652v336h1131v-397l-705 -666v-63h740v-336h-1223z" />
<glyph unicode="[" horiz-adv-x="849" d="M133 -289v1843h617v-256h-318v-1331h318v-256h-617z" />
<glyph unicode="\" horiz-adv-x="942" d="M49 1554h281l618 -1843h-286z" />
<glyph unicode="]" horiz-adv-x="849" d="M100 -33h318v1331h-318v256h617v-1843h-617v256z" />
<glyph unicode="^" horiz-adv-x="1255" d="M74 532l444 889h219l445 -889h-330l-197 402h-57l-195 -402h-329z" />
<glyph unicode="_" horiz-adv-x="1058" d="M-2 -121h1063v-219h-1063v219z" />
<glyph unicode="`" horiz-adv-x="724" d="M82 1489h364l197 -297h-311z" />
<glyph unicode="a" horiz-adv-x="1236" d="M72 332q0 52 15 101t49.5 95.5t85.5 81t127.5 55.5t170.5 21h246v19q0 72 -37 103.5t-108 31.5q-129 0 -142 -92h-352q4 154 136 249t337 95q117 0 207 -22t159 -70t105.5 -130.5t36.5 -197.5v-672h-326v82h-57q-49 -56 -115 -82.5t-166 -26.5q-170 0 -271 105.5 t-101 253.5zM428 360q0 -61 39.5 -92.5t112.5 -31.5q86 0 136 52t50 132v63h-172q-75 0 -120.5 -32t-45.5 -91z" />
<glyph unicode="b" horiz-adv-x="1347" d="M141 0v1489h357v-514h57q89 117 266 117q134 0 235 -72t154.5 -198.5t53.5 -289.5q0 -249 -118.5 -404t-324.5 -155q-185 0 -278 117h-58v-90h-344zM483 532q0 -116 54.5 -192t160.5 -76t157.5 75.5t51.5 192.5t-51.5 193t-157.5 76t-160.5 -76.5t-54.5 -192.5z" />
<glyph unicode="c" horiz-adv-x="1230" d="M84 532q0 258 151 409t400 151q207 0 344 -106t154 -281h-351q-27 96 -145 96q-102 0 -149.5 -75t-47.5 -194q0 -120 48 -194t149 -74q66 0 107.5 31t48.5 86h350q-17 -182 -158 -295t-350 -113q-250 0 -400.5 149.5t-150.5 409.5z" />
<glyph unicode="d" horiz-adv-x="1347" d="M84 532q0 248 120.5 404t321.5 156q178 0 267 -117h57v514h356v-1489h-344v90h-57q-93 -117 -279 -117q-206 0 -324 155t-118 404zM440 532q0 -117 51.5 -192.5t157.5 -75.5t160.5 76t54.5 192t-54.5 192.5t-160.5 76.5t-157.5 -76t-51.5 -193z" />
<glyph unicode="e" horiz-adv-x="1257" d="M84 532q0 259 149.5 409.5t401.5 150.5t395.5 -142t143.5 -383v-82h-738q21 -221 213 -221q65 0 102 19t54 61h360q-36 -178 -167 -274.5t-355 -96.5q-256 0 -407.5 149.5t-151.5 409.5zM451 698h358q-27 140 -174 140q-76 0 -119.5 -35t-64.5 -105z" />
<glyph unicode="f" horiz-adv-x="856" d="M45 774v291h139v49q0 103 35 178t98.5 117t142.5 61t177 19h158v-291h-152q-55 0 -78.5 -28t-23.5 -70v-35h254v-291h-254v-774h-357v774h-139z" />
<glyph unicode="g" horiz-adv-x="1351" d="M84 557q0 236 127 385.5t336 149.5q96 0 165 -34.5t97 -82.5h57v90h344v-1012q0 -150 -73 -262t-198.5 -169.5t-285.5 -57.5q-233 0 -375.5 97.5t-154.5 279.5h352q14 -109 174 -109q56 0 97.5 21t64 58t33 80.5t10.5 96.5v51h-53q-75 -116 -256 -116q-209 0 -335 149 t-126 385zM440 557q0 -104 57 -174t154 -70q102 0 159.5 68.5t57.5 175.5t-57.5 175.5t-159.5 68.5q-97 0 -154 -70t-57 -174z" />
<glyph unicode="h" horiz-adv-x="1339" d="M141 0v1489h357v-518h57q51 61 113.5 91t160.5 30q381 0 381 -449v-643h-356v584q0 94 -42.5 145t-125.5 51q-87 0 -137.5 -63.5t-50.5 -155.5v-561h-357z" />
<glyph unicode="i" horiz-adv-x="638" d="M141 0v1065h357v-1065h-357zM141 1192v297h357v-297h-357z" />
<glyph unicode="j" horiz-adv-x="661" d="M-61 -119h94q66 0 98.5 35.5t32.5 95.5v1053h356v-1083q0 -392 -446 -392h-135v291zM164 1192v297h356v-297h-356z" />
<glyph unicode="k" horiz-adv-x="1284" d="M141 0v1489h359v-774l327 350h392l-301 -330l346 -735h-369l-215 453h-57l-123 -142v-311h-359z" />
<glyph unicode="l" horiz-adv-x="638" d="M141 0v1489h357v-1489h-357z" />
<glyph unicode="m" horiz-adv-x="1925" d="M141 0v1065h344v-92h58q76 119 260 119q182 0 268 -119h57q82 119 283 119q192 0 288.5 -114.5t96.5 -318.5v-659h-356v586q0 97 -30.5 145.5t-104.5 48.5q-81 0 -119.5 -54.5t-38.5 -145.5v-580h-356v586q0 96 -30.5 145t-105.5 49q-82 0 -119.5 -60t-37.5 -157v-563 h-357z" />
<glyph unicode="n" horiz-adv-x="1339" d="M141 0v1065h344v-92h58q50 61 117 90t165 29q196 0 290.5 -116t94.5 -333v-643h-356v584q0 94 -42.5 145t-125.5 51q-87 0 -137.5 -63.5t-50.5 -155.5v-561h-357z" />
<glyph unicode="o" horiz-adv-x="1304" d="M84 532q0 256 156 408t413 152q258 0 413 -151.5t155 -408.5t-155 -408t-413 -151q-257 0 -413 151.5t-156 407.5zM440 532q0 -120 53 -194t160 -74q105 0 158 74t53 194q0 118 -53 193.5t-158 75.5q-107 0 -160 -75.5t-53 -193.5z" />
<glyph unicode="p" horiz-adv-x="1347" d="M141 -410v1475h344v-90h58q93 117 278 117q137 0 238 -72t153 -198.5t52 -289.5t-53.5 -289.5t-154.5 -198t-235 -71.5q-177 0 -266 117h-57v-500h-357zM483 532q0 -116 54.5 -192t160.5 -76t157.5 75.5t51.5 192.5t-51.5 193t-157.5 76t-160.5 -76.5t-54.5 -192.5z" />
<glyph unicode="q" horiz-adv-x="1347" d="M84 532q0 250 118.5 405t323.5 155q186 0 279 -117h57v90h344v-1475h-356v500h-57q-89 -117 -267 -117q-201 0 -321.5 155.5t-120.5 403.5zM440 532q0 -117 51.5 -192.5t157.5 -75.5t160.5 76t54.5 192t-54.5 192.5t-160.5 76.5t-157.5 -76t-51.5 -193z" />
<glyph unicode="r" horiz-adv-x="976" d="M141 0v1065h344v-115h58q11 18 28 35t48 36.5t82 31.5t114 12h113v-330h-113q-167 0 -242 -77t-75 -230v-428h-357z" />
<glyph unicode="s" horiz-adv-x="1157" d="M70 350h352q15 -123 170 -123q65 0 100 24.5t35 67.5t-30.5 64.5t-98.5 32.5l-188 30q-306 53 -306 299q0 72 28 133t84 110t148.5 76.5t213.5 27.5q205 0 328.5 -89t142.5 -239h-351q-15 78 -129 78q-46 0 -77 -19t-31 -53t21.5 -51t64.5 -23l174 -24 q170 -22 266 -105.5t96 -238.5q0 -70 -31 -132.5t-90.5 -113t-156 -80t-217.5 -29.5q-243 0 -373.5 100.5t-144.5 276.5z" />
<glyph unicode="t" horiz-adv-x="864" d="M45 774v291h139v287h357v-287h213v-291h-213v-385q0 -40 25.5 -66t78.5 -26h109v-297h-115q-102 0 -178.5 15t-142 52t-100 108t-34.5 175v424h-139z" />
<glyph unicode="u" horiz-adv-x="1339" d="M129 422v643h356v-584q0 -94 42.5 -145t125.5 -51q87 0 138 63.5t51 155.5v561h356v-1065h-344v92h-57q-50 -61 -117.5 -90t-165.5 -29q-196 0 -290.5 116t-94.5 333z" />
<glyph unicode="v" horiz-adv-x="1230" d="M39 1065h358l178 -762h91l168 762h358l-281 -1065h-598z" />
<glyph unicode="w" horiz-adv-x="1605" d="M78 1065h330l69 -657h58l114 399h312l114 -399h58l69 657h326l-142 -1065h-409l-148 477h-57l-147 -477h-406z" />
<glyph unicode="x" horiz-adv-x="1302" d="M63 0l287 547l-258 518h367l157 -334h78l162 334h363l-265 -514l285 -551h-377l-174 358h-78l-176 -358h-371z" />
<glyph unicode="y" horiz-adv-x="1286" d="M33 1065h356l240 -516h57l215 516h352l-645 -1475h-352l223 527z" />
<glyph unicode="z" horiz-adv-x="1183" d="M104 0v346l469 371v57h-436v291h918v-346l-467 -371v-57h491v-291h-975z" />
<glyph unicode="{" horiz-adv-x="919" d="M82 498v270h59q83 0 120.5 49t37.5 146v188q0 177 111 290t307 113h137v-256h-76q-99 0 -139.5 -55.5t-40.5 -169.5v-170q0 -94 -42.5 -157t-109.5 -84v-58q67 -21 109.5 -84.5t42.5 -157.5v-169q0 -114 40.5 -170t139.5 -56h76v-256h-137q-196 0 -307 113.5t-111 290.5 v188q0 97 -37.5 146t-120.5 49h-59z" />
<glyph unicode="|" horiz-adv-x="577" d="M152 -289v1843h274v-1843h-274z" />
<glyph unicode="}" horiz-adv-x="919" d="M66 -33h75q99 0 140 56t41 170v169q0 94 42.5 157.5t108.5 84.5v58q-67 21 -109 84t-42 157v170q0 114 -41 169.5t-140 55.5h-75v256h137q196 0 307 -113t111 -290v-188q0 -97 37.5 -146t119.5 -49h60v-270h-60q-82 0 -119.5 -49t-37.5 -146v-188q0 -177 -111 -290.5 t-307 -113.5h-137v256z" />
<glyph unicode="~" horiz-adv-x="1376" d="M152 416q0 201 82.5 300t228.5 99q61 0 128 -26t115 -57t101.5 -57t91.5 -26q41 0 66.5 33.5t25.5 101.5h234q0 -200 -83.5 -299.5t-230.5 -99.5q-61 0 -128 26t-114 57t-101 57t-93 26q-41 0 -65.5 -33t-24.5 -102h-233z" />
<glyph unicode="&#xa2;" horiz-adv-x="1230" d="M84 532q0 233 135 384t356 171v142h105v-139q191 -14 312 -116.5t141 -268.5h-326q-8 48 -42 81.5t-85 40.5v-585q54 10 91.5 50t43.5 89h328q-20 -167 -148.5 -280.5t-314.5 -125.5v-139h-105v139q-221 17 -356 169.5t-135 387.5zM410 532q0 -113 41.5 -192.5 t123.5 -97.5v583q-82 -19 -123.5 -99t-41.5 -194z" />
<glyph unicode="&#xa3;" horiz-adv-x="1341" d="M78 0v315h31q79 0 108 43t29 127v60h-166v276h166v154q0 103 31 191t91 154.5t154.5 104t214.5 37.5t215 -36.5t155.5 -100.5t93 -147t36.5 -181h-367q-6 150 -127 150q-133 0 -133 -166v-160h439v-276h-439v-25q0 -58 -12.5 -89.5t-42.5 -57.5v-58h725v-315h-1202z" />
<glyph unicode="&#xa5;" horiz-adv-x="1394" d="M55 1434h359l254 -609h57l254 609h360l-274 -609h188v-157h-260l-49 -111h309v-158h-381v-399h-354v399h-381v158h309l-49 111h-260v157h191z" />
<glyph unicode="&#xa8;" horiz-adv-x="870" d="M82 1192v297h285v-297h-285zM504 1192v297h284v-297h-284z" />
<glyph unicode="&#xa9;" horiz-adv-x="1732" d="M104 731q0 162 58 303.5t159 241t242.5 156.5t302.5 57q215 0 389.5 -97.5t273.5 -271t99 -389.5q0 -163 -57.5 -304.5t-158 -241t-242 -156t-304.5 -56.5q-219 0 -393 96.5t-271.5 270t-97.5 391.5zM248 731q0 -182 76.5 -326t218 -225.5t323.5 -81.5q180 0 323 82.5 t221.5 227t78.5 323.5q0 181 -77.5 325.5t-220.5 227t-325 82.5q-181 0 -322.5 -82.5t-218.5 -227t-77 -325.5zM496 731q0 179 101 291.5t284 112.5q145 0 236 -73t112 -194h-211q-24 84 -137 84q-85 0 -128.5 -59.5t-43.5 -161.5t43.5 -162.5t128.5 -60.5q123 0 143 104 h211q-24 -132 -114.5 -209t-239.5 -77q-183 0 -284 112.5t-101 292.5z" />
<glyph unicode="&#xab;" horiz-adv-x="1462" d="M100 504v188l310 322h381l-363 -387v-58l363 -387h-381zM672 504v188l309 322h381l-363 -387v-58l363 -387h-381z" />
<glyph unicode="&#xad;" horiz-adv-x="845" d="M92 434v305h662v-305h-662z" />
<glyph unicode="&#xae;" horiz-adv-x="1732" d="M104 731q0 162 58 303.5t159 241t242.5 156.5t302.5 57q215 0 389.5 -97.5t273.5 -271t99 -389.5q0 -163 -57.5 -304.5t-158 -241t-242 -156t-304.5 -56.5q-219 0 -393 96.5t-271.5 270t-97.5 391.5zM248 731q0 -182 76.5 -326t218 -225.5t323.5 -81.5q180 0 323 82.5 t221.5 227t78.5 323.5q0 181 -77.5 325.5t-220.5 227t-325 82.5q-181 0 -322.5 -82.5t-218.5 -227t-77 -325.5zM561 340v780h383q135 0 210 -66.5t75 -187.5q0 -147 -113 -211l113 -315h-209l-98 274h-154v-274h-207zM768 786h141q107 0 107 78t-107 78h-141v-156z" />
<glyph unicode="&#xb4;" horiz-adv-x="724" d="M82 1192l197 297h364l-250 -297h-311z" />
<glyph unicode="&#xb8;" horiz-adv-x="653" d="M82 -307h170q12 -55 72 -55q32 0 50.5 18.5t18.5 48.5q0 32 -19 50t-52 18q-43 0 -64 -27h-141l112 295h113l-59 -160h32q31 25 86 25q74 0 122 -50.5t48 -136.5q0 -87 -64 -149t-190 -62q-109 0 -172 56t-63 129z" />
<glyph unicode="&#xbb;" horiz-adv-x="1462" d="M100 182l363 387v58l-363 387h381l310 -322v-188l-310 -322h-381zM672 182l362 387v58l-362 387h381l309 -322v-188l-309 -322h-381z" />
<glyph unicode="&#x2c6;" horiz-adv-x="909" d="M82 1192l229 297h287l229 -297h-256l-90 113h-57l-90 -113h-252z" />
<glyph unicode="&#x2da;" horiz-adv-x="671" d="M82 1403q0 102 74.5 174t179.5 72q106 0 180 -71.5t74 -174.5q0 -101 -74 -172.5t-180 -71.5q-105 0 -179.5 71.5t-74.5 172.5zM242 1403q0 -38 28 -66t66 -28t66 28t28 66q0 41 -27.5 68.5t-66.5 27.5t-66.5 -27.5t-27.5 -68.5z" />
<glyph unicode="&#x2dc;" horiz-adv-x="854" d="M82 1192q0 135 55 216t166 81q42 0 82 -15.5t65.5 -33.5t58 -33.5t60.5 -15.5q29 0 45.5 27t16.5 71h141q0 -131 -55.5 -214t-165.5 -83q-42 0 -82 15.5t-65.5 33.5t-58 33.5t-60.5 15.5q-29 0 -45.5 -26.5t-16.5 -71.5h-141z" />
<glyph unicode="&#x401;" horiz-adv-x="1382" d="M158 0v1462h1122v-336h-741v-217h565v-327h-565v-246h759v-336h-1140zM369 1571v264h284v-264h-284zM791 1571v264h284v-264h-284z" />
<glyph unicode="&#x402;" horiz-adv-x="1728" d="M31 1126v336h1255v-336h-489v-252q135 27 295 27q122 0 217.5 -26.5t155.5 -70.5t99 -105t54.5 -124.5t15.5 -134.5q0 -112 -29.5 -196.5t-76.5 -135t-115.5 -82t-137 -42.5t-151.5 -11q-62 0 -80 2l-28 5v335l20 -4q14 -2 43 -2q174 0 174 125q0 133 -241 133 q-120 0 -215 -24v-543h-381v1126h-385z" />
<glyph unicode="&#x403;" horiz-adv-x="1325" d="M158 0v1462h1091v-336h-710v-1126h-381zM469 1550l197 297h364l-250 -297h-311z" />
<glyph unicode="&#x404;" horiz-adv-x="1531" d="M94 731q0 228 82 398t243 265t384 95q252 0 416 -128t202 -335h-395q-19 59 -80.5 93t-148.5 34q-121 0 -195.5 -66t-97.5 -190h454v-326h-454q18 -126 97.5 -194t199.5 -68q98 0 160 37.5t79 108.5h396q-20 -214 -192 -348t-437 -134q-222 0 -384 94.5t-245.5 265 t-83.5 398.5z" />
<glyph unicode="&#x405;" horiz-adv-x="1445" d="M86 471h389q29 -180 273 -180q97 0 153.5 37.5t56.5 99.5q0 64 -41 94t-126 45l-275 45q-194 32 -290.5 139t-96.5 277q0 95 38.5 178.5t110 146.5t182 99.5t245.5 36.5q250 0 415 -120t185 -329h-390q-17 71 -70.5 101t-144.5 30q-81 0 -133.5 -32t-52.5 -95 q0 -51 35 -76t106 -36l269 -43q191 -31 304 -139t113 -299q0 -97 -37.5 -181.5t-110.5 -151.5t-192 -106t-270 -39q-290 0 -455.5 130.5t-189.5 367.5z" />
<glyph unicode="&#x406;" horiz-adv-x="716" d="M168 0v1462h381v-1462h-381z" />
<glyph unicode="&#x407;" horiz-adv-x="716" d="M6 1571v264h285v-264h-285zM168 0v1462h381v-1462h-381zM428 1571v264h285v-264h-285z" />
<glyph unicode="&#x408;" horiz-adv-x="1263" d="M47 479h379q6 -170 158 -170q73 0 109 53t36 150v950h381v-956q0 -253 -138.5 -393t-383.5 -140q-239 0 -388 133t-153 373z" />
<glyph unicode="&#x409;" horiz-adv-x="2392" d="M53 0v369h58q43 0 68 4t50.5 19t39 43t25 78t15.5 122.5t4 177.5v649h1133v-461h289q268 0 415.5 -130t147.5 -365q0 -240 -147.5 -373t-415.5 -133h-670v1126h-399v-323q0 -130 -8 -234t-26 -185t-42 -141t-61 -102.5t-77 -70t-95.5 -43t-112.5 -21.5t-131 -6h-60z M1446 326h231q124 0 178 43.5t54 132.5t-54 131.5t-178 42.5h-231v-350z" />
<glyph unicode="&#x40a;" horiz-adv-x="2387" d="M158 0v1462h381v-540h522v540h381v-461h289q268 0 415.5 -130t147.5 -365q0 -240 -147.5 -373t-415.5 -133h-670v580h-522v-580h-381zM1442 326h231q124 0 178 43.5t54 132.5t-54 131.5t-178 42.5h-231v-350z" />
<glyph unicode="&#x40b;" horiz-adv-x="1736" d="M31 1126v336h1255v-336h-489v-258q129 33 295 33q85 0 156 -9t123 -23t93.5 -38.5t68.5 -48.5t46.5 -60t30 -66t16 -73t7 -75t1.5 -78v-430h-381v354q0 29 -1 45t-6 42t-14.5 40.5t-29 32.5t-47.5 27.5t-70.5 16.5t-97.5 7q-99 0 -190 -26v-539h-381v1126h-385z" />
<glyph unicode="&#x40c;" horiz-adv-x="1564" d="M158 0v1462h381v-538h295l251 538h383l-327 -710l346 -752h-383l-268 582h-297v-582h-381zM606 1571l197 264h377l-250 -264h-324z" />
<glyph unicode="&#x40e;" horiz-adv-x="1464" d="M20 1462h394l303 -583h57l277 583h379l-701 -1462h-375l209 438zM330 1851h270q31 -94 135 -94t135 94h271q-19 -146 -121 -229.5t-285 -83.5t-284.5 83t-120.5 230z" />
<glyph unicode="&#x40f;" horiz-adv-x="1597" d="M158 0v1462h381v-1126h520v1126h381v-1462h-451v-358h-381v358h-450z" />
<glyph unicode="&#x410;" horiz-adv-x="1521" d="M35 0l438 1462h576l438 -1462h-379l-107 379h-491l-104 -379h-371zM592 678h326l-117 424h-90z" />
<glyph unicode="&#x411;" horiz-adv-x="1505" d="M158 0v1462h1116v-336h-735v-196h348q249 0 386.5 -121.5t137.5 -339.5q0 -222 -137 -345.5t-387 -123.5h-729zM539 326h280q108 0 155.5 38t47.5 115q0 76 -48 114t-155 38h-280v-305z" />
<glyph unicode="&#x412;" horiz-adv-x="1511" d="M158 0v1462h716q239 0 365.5 -112.5t126.5 -286.5q0 -95 -39.5 -169.5t-103.5 -111.5v-57q73 -36 127.5 -115.5t54.5 -179.5q0 -194 -127.5 -312t-380.5 -118h-739zM539 313h297q75 0 126.5 33t51.5 105q0 145 -172 145h-303v-283zM539 903h284q152 0 152 125 q0 67 -43.5 97t-112.5 30h-280v-252z" />
<glyph unicode="&#x413;" horiz-adv-x="1325" d="M158 0v1462h1091v-336h-710v-1126h-381z" />
<glyph unicode="&#x414;" horiz-adv-x="1689" d="M43 336h152q159 251 159 680v446h1082v-1126h206v-694h-368v358h-862v-358h-369v694zM567 336h500v790h-371v-110q0 -467 -129 -680z" />
<glyph unicode="&#x415;" horiz-adv-x="1382" d="M158 0v1462h1122v-336h-741v-217h565v-327h-565v-246h759v-336h-1140z" />
<glyph unicode="&#x416;" horiz-adv-x="2269" d="M78 0l311 741l-293 721h383l217 -549h254v549h369v-549h254l217 549h383l-293 -721l311 -741h-383l-233 571h-256v-571h-369v571h-256l-233 -571h-383z" />
<glyph unicode="&#x417;" horiz-adv-x="1470" d="M70 471h401q37 -162 266 -162q105 0 166.5 38.5t61.5 101.5q0 135 -207 135h-203v325h203q166 0 166 123q0 58 -55 89.5t-136 31.5q-196 0 -217 -131h-395q20 223 185.5 344t434.5 121q264 0 419 -112t155 -296q0 -105 -41 -175t-103 -103v-58q193 -68 193 -313 q0 -200 -170 -328.5t-455 -128.5q-313 0 -479 129t-190 369z" />
<glyph unicode="&#x418;" horiz-adv-x="1642" d="M158 0v1462h348v-923h57l432 923h490v-1462h-348v924h-58l-432 -924h-489z" />
<glyph unicode="&#x419;" horiz-adv-x="1642" d="M158 0v1462h348v-923h57l432 923h490v-1462h-348v924h-58l-432 -924h-489zM416 1851h270q31 -94 135 -94t135 94h271q-19 -146 -121 -229.5t-285 -83.5t-284.5 83t-120.5 230z" />
<glyph unicode="&#x41a;" horiz-adv-x="1523" d="M158 0v1462h381v-538h295l251 538h383l-327 -710l346 -752h-383l-268 582h-297v-582h-381z" />
<glyph unicode="&#x41b;" horiz-adv-x="1603" d="M53 0v369h58q43 0 68 4t50.5 19t39 43t25 78t15.5 122.5t4 177.5v649h1133v-1462h-381v1126h-399v-323q0 -130 -8 -234t-26 -185t-42 -141t-61 -102.5t-77 -70t-95.5 -43t-112.5 -21.5t-131 -6h-60z" />
<glyph unicode="&#x41c;" horiz-adv-x="1835" d="M158 0v1462h569l162 -530h57l162 530h569v-1462h-350v989h-57l-166 -526h-373l-166 526h-57v-989h-350z" />
<glyph unicode="&#x41d;" horiz-adv-x="1619" d="M158 0v1462h381v-540h542v540h381v-1462h-381v580h-542v-580h-381z" />
<glyph unicode="&#x41e;" horiz-adv-x="1650" d="M94 731q0 163 48.5 301.5t139 240t230 159t313.5 57.5t313.5 -57.5t230 -159t139 -240t48.5 -301.5t-48.5 -301.5t-139 -240t-230 -159t-313.5 -57.5t-313.5 57.5t-230 159t-139 240t-48.5 301.5zM483 731q0 -191 88.5 -306.5t253.5 -115.5t253.5 115.5t88.5 306.5 t-88.5 306.5t-253.5 115.5q-166 0 -254 -115t-88 -307z" />
<glyph unicode="&#x41f;" horiz-adv-x="1603" d="M158 0v1462h1288v-1462h-381v1126h-526v-1126h-381z" />
<glyph unicode="&#x420;" horiz-adv-x="1499" d="M158 0v1462h700q260 0 403.5 -126t143.5 -355q0 -232 -144 -360.5t-403 -128.5h-319v-492h-381zM539 817h270q110 0 158.5 39t48.5 119t-48.5 117.5t-158.5 37.5h-270v-313z" />
<glyph unicode="&#x421;" horiz-adv-x="1533" d="M94 731q0 228 83.5 398.5t245.5 265t384 94.5q253 0 416.5 -132t201.5 -347h-395q-18 71 -76.5 107t-146.5 36q-156 0 -240 -115.5t-84 -306.5q0 -190 84.5 -306t239.5 -116q100 0 163.5 49t76.5 140h391q-30 -236 -198 -380.5t-433 -144.5q-222 0 -384 94.5t-245.5 265 t-83.5 398.5z" />
<glyph unicode="&#x422;" horiz-adv-x="1316" d="M31 1126v336h1255v-336h-438v-1126h-381v1126h-436z" />
<glyph unicode="&#x423;" horiz-adv-x="1464" d="M20 1462h394l303 -583h57l277 583h379l-701 -1462h-375l209 438z" />
<glyph unicode="&#x424;" horiz-adv-x="1892" d="M86 752q0 188 85.5 321t234 197.5t346.5 64.5h14v174h360v-174h15q198 0 346 -64.5t233.5 -197.5t85.5 -321q0 -192 -85.5 -325t-233 -196t-346.5 -63h-15v-195h-360v195h-14q-306 0 -486 149t-180 435zM465 752q0 -133 77 -200t210 -67h14v535h-14q-135 0 -211 -66 t-76 -202zM1126 485h15q133 0 209.5 67t76.5 200q0 136 -75.5 202t-210.5 66h-15v-535z" />
<glyph unicode="&#x425;" horiz-adv-x="1478" d="M37 0l381 766l-330 696h379l246 -508h57l252 508h377l-338 -690l381 -772h-410l-264 565h-57l-271 -565h-403z" />
<glyph unicode="&#x426;" horiz-adv-x="1693" d="M158 0v1462h381v-1126h520v1126h381v-1126h207v-694h-369v358h-1120z" />
<glyph unicode="&#x427;" horiz-adv-x="1478" d="M102 971v491h381v-415q0 -25 0.5 -39.5t4 -37t10.5 -36t19.5 -31.5t32.5 -28t47 -20t66 -14.5t87 -4.5q99 0 190 26v600h381v-1462h-381v532q-125 -32 -295 -32q-127 0 -221.5 17.5t-152 54t-93.5 75t-51.5 100t-20 107.5t-4.5 117z" />
<glyph unicode="&#x428;" horiz-adv-x="2211" d="M158 0v1462h368v-1126h396v1126h368v-1126h396v1126h368v-1462h-1896z" />
<glyph unicode="&#x429;" horiz-adv-x="2308" d="M158 0v1462h368v-1126h396v1126h368v-1126h396v1126h368v-1126h207v-694h-369v358h-1734z" />
<glyph unicode="&#x42a;" horiz-adv-x="1738" d="M20 1126v336h752v-461h309q268 0 416 -130t148 -365q0 -240 -148 -373t-416 -133h-690v1126h-371zM772 326h252q124 0 177.5 43.5t53.5 132.5t-53.5 131.5t-177.5 42.5h-252v-350z" />
<glyph unicode="&#x42b;" horiz-adv-x="2031" d="M158 0v1462h381v-461h249q268 0 416 -130t148 -365q0 -240 -148 -373t-416 -133h-630zM539 326h192q124 0 178 43.5t54 132.5t-54 131.5t-178 42.5h-192v-350zM1493 0v1462h381v-1462h-381z" />
<glyph unicode="&#x42c;" horiz-adv-x="1505" d="M158 0v1462h381v-461h309q268 0 415.5 -130t147.5 -365q0 -240 -147.5 -373t-415.5 -133h-690zM539 326h252q124 0 177.5 43.5t53.5 132.5t-53.5 131.5t-177.5 42.5h-252v-350z" />
<glyph unicode="&#x42d;" horiz-adv-x="1505" d="M70 455h395q17 -71 79.5 -108.5t160.5 -37.5q120 0 198.5 68t97.5 194h-454v326h454q-23 124 -97.5 190t-194.5 66q-87 0 -149 -34t-81 -93h-395q38 207 202 335t416 128q223 0 384 -95t243 -265t82 -398t-83.5 -398.5t-245.5 -265t-384 -94.5q-264 0 -436 134t-192 348z " />
<glyph unicode="&#x42e;" horiz-adv-x="2283" d="M158 0v1462h381v-540h223q51 259 233.5 413t470.5 154q171 0 309 -57.5t228 -159t138 -240t48 -301.5t-48 -301.5t-138 -240t-228 -159t-309 -57.5q-301 0 -485 166t-227 441h-215v-580h-381zM1133 731q0 -189 87.5 -305.5t245.5 -116.5t246 116.5t88 305.5t-88 305.5 t-246 116.5t-245.5 -115.5t-87.5 -306.5z" />
<glyph unicode="&#x42f;" horiz-adv-x="1486" d="M80 989q0 223 140.5 348t393.5 125h715v-1462h-381v512h-303l-182 -512h-381l211 588q-213 123 -213 401zM469 981q0 -152 197 -152h282v301h-282q-104 0 -150.5 -37t-46.5 -112z" />
<glyph unicode="&#x430;" horiz-adv-x="1236" d="M72 332q0 52 15 101t49.5 95.5t85.5 81t127.5 55.5t170.5 21h246v19q0 72 -37 103.5t-108 31.5q-129 0 -142 -92h-352q4 154 136 249t337 95q117 0 207 -22t159 -70t105.5 -130.5t36.5 -197.5v-672h-326v82h-57q-49 -56 -115 -82.5t-166 -26.5q-170 0 -271 105.5 t-101 253.5zM428 360q0 -61 39.5 -92.5t112.5 -31.5q86 0 136 52t50 132v63h-172q-75 0 -120.5 -32t-45.5 -91z" />
<glyph unicode="&#x431;" horiz-adv-x="1308" d="M84 637q0 74 5.5 142t19 138t35 130t54.5 115t75.5 96.5t101.5 70.5t129 41l270 43q60 11 82.5 26t26.5 50h274q0 -46 -3 -79.5t-15.5 -77t-35 -73t-64 -54.5t-99.5 -34l-365 -57q-99 -13 -156.5 -66.5t-80.5 -177.5h57q50 78 127.5 112t190.5 34q225 0 368.5 -146.5 t143.5 -375.5q0 -230 -158.5 -375.5t-409.5 -145.5q-271 0 -422 169t-151 495zM444 506q0 -105 53.5 -173.5t159.5 -68.5q104 0 157.5 69t53.5 173q0 103 -53.5 171t-157.5 68q-106 0 -159.5 -68t-53.5 -171z" />
<glyph unicode="&#x432;" horiz-adv-x="1284" d="M141 0v1065h658q161 0 248.5 -71t87.5 -199q0 -72 -37 -124.5t-90 -78.5v-57q83 -22 132.5 -82t49.5 -158q0 -146 -97.5 -220.5t-279.5 -74.5h-672zM487 227h209q138 0 138 109q0 108 -138 108h-209v-217zM487 655h183q57 0 82.5 26t25.5 67q0 92 -108 92h-183v-185z" />
<glyph unicode="&#x433;" horiz-adv-x="1097" d="M141 0v1065h899v-291h-542v-774h-357z" />
<glyph unicode="&#x434;" horiz-adv-x="1482" d="M41 291h168q70 213 70 459v315h954v-774h184v-584h-332v293h-712v-293h-332v584zM539 291h338v483h-279v-26q0 -246 -59 -457z" />
<glyph unicode="&#x435;" horiz-adv-x="1257" d="M84 532q0 259 149.5 409.5t401.5 150.5t395.5 -142t143.5 -383v-82h-738q21 -221 213 -221q65 0 102 19t54 61h360q-36 -178 -167 -274.5t-355 -96.5q-256 0 -407.5 149.5t-151.5 409.5zM451 698h358q-27 140 -174 140q-76 0 -119.5 -35t-64.5 -105z" />
<glyph unicode="&#x436;" horiz-adv-x="1873" d="M68 0l256 547l-240 518h354l170 -375h166v375h326v-375h166l170 375h354l-240 -518l256 -547h-358l-182 399h-166v-399h-326v399h-166l-182 -399h-358z" />
<glyph unicode="&#x437;" horiz-adv-x="1218" d="M74 352h323q24 -98 199 -98q172 0 172 92q0 41 -33 58.5t-102 17.5h-166v225h156q122 0 122 80q0 39 -40 61.5t-111 22.5q-73 0 -115.5 -24.5t-48.5 -67.5h-321q11 125 83 210.5t181 124t250 38.5q216 0 344.5 -87t128.5 -225q0 -84 -29 -127t-76 -69v-58 q133 -45 133 -209q0 -154 -140 -249t-366 -95q-508 0 -544 379z" />
<glyph unicode="&#x438;" horiz-adv-x="1359" d="M141 0v1065h346v-483h50l381 483h301v-1065h-347v483h-49l-381 -483h-301z" />
<glyph unicode="&#x439;" horiz-adv-x="1359" d="M141 0v1065h346v-483h50l381 483h301v-1065h-347v483h-49l-381 -483h-301zM274 1462h271q31 -94 135 -94t135 94h270q-19 -147 -120.5 -230t-284.5 -83t-285 83.5t-121 229.5z" />
<glyph unicode="&#x43a;" horiz-adv-x="1316" d="M141 0v1065h357v-371h186l190 371h361l-262 -514l278 -551h-368l-203 403h-182v-403h-357z" />
<glyph unicode="&#x43b;" horiz-adv-x="1372" d="M41 0v342h39q100 0 143 55t43 199v469h965v-1065h-357v774h-282v-192q0 -213 -57.5 -342t-168 -184.5t-286.5 -55.5h-39z" />
<glyph unicode="&#x43c;" horiz-adv-x="1605" d="M141 0v1065h445l188 -426h57l189 426h444v-1065h-346v573h-57l-123 -276h-270l-123 276h-58v-573h-346z" />
<glyph unicode="&#x43d;" horiz-adv-x="1351" d="M141 0v1065h357v-373h356v373h356v-1065h-356v401h-356v-401h-357z" />
<glyph unicode="&#x43e;" horiz-adv-x="1304" d="M84 532q0 256 156 408t413 152q258 0 413 -151.5t155 -408.5t-155 -408t-413 -151q-257 0 -413 151.5t-156 407.5zM440 532q0 -120 53 -194t160 -74q105 0 158 74t53 194q0 118 -53 193.5t-158 75.5q-107 0 -160 -75.5t-53 -193.5z" />
<glyph unicode="&#x43f;" horiz-adv-x="1343" d="M141 0v1065h1061v-1065h-356v774h-348v-774h-357z" />
<glyph unicode="&#x440;" horiz-adv-x="1347" d="M141 -410v1475h344v-90h58q93 117 278 117q137 0 238 -72t153 -198.5t52 -289.5t-53.5 -289.5t-154.5 -198t-235 -71.5q-177 0 -266 117h-57v-500h-357zM483 532q0 -116 54.5 -192t160.5 -76t157.5 75.5t51.5 192.5t-51.5 193t-157.5 76t-160.5 -76.5t-54.5 -192.5z" />
<glyph unicode="&#x441;" horiz-adv-x="1230" d="M84 532q0 258 151 409t400 151q207 0 344 -106t154 -281h-351q-27 96 -145 96q-102 0 -149.5 -75t-47.5 -194q0 -120 48 -194t149 -74q66 0 107.5 31t48.5 86h350q-17 -182 -158 -295t-350 -113q-250 0 -400.5 149.5t-150.5 409.5z" />
<glyph unicode="&#x442;" horiz-adv-x="1155" d="M61 774v291h1033v-291h-338v-774h-357v774h-338z" />
<glyph unicode="&#x443;" horiz-adv-x="1286" d="M33 1065h356l240 -516h57l215 516h352l-645 -1475h-352l223 527z" />
<glyph unicode="&#x444;" horiz-adv-x="1683" d="M84 532q0 238 155.5 385.5t430.5 147.5v424h344v-424q275 0 430 -147.5t155 -385.5t-155 -385t-430 -147v-410h-344v410q-275 0 -430.5 147t-155.5 385zM432 532q0 -116 61 -192t177 -76v537q-116 0 -177 -76.5t-61 -192.5zM1014 264q116 0 176.5 76t60.5 192 t-60.5 192.5t-176.5 76.5v-537z" />
<glyph unicode="&#x445;" horiz-adv-x="1302" d="M63 0l287 547l-258 518h367l157 -334h78l162 334h363l-265 -514l285 -551h-377l-174 358h-78l-176 -358h-371z" />
<glyph unicode="&#x446;" horiz-adv-x="1443" d="M141 0v1065h357v-774h340v774h356v-774h184v-584h-331v293h-906z" />
<glyph unicode="&#x447;" horiz-adv-x="1261" d="M84 666v399h356v-315q0 -28 5.5 -49t21.5 -41.5t50 -31t85 -10.5q69 0 162 19v428h356v-1065h-356v354q-143 -26 -291 -26q-99 0 -172 20t-114 50.5t-65 77.5t-31 90.5t-7 99.5z" />
<glyph unicode="&#x448;" horiz-adv-x="1826" d="M141 0v1065h344v-774h256v774h344v-774h256v774h345v-1065h-1545z" />
<glyph unicode="&#x449;" horiz-adv-x="1935" d="M141 0v1065h344v-774h256v774h344v-774h256v774h345v-774h184v-584h-332v293h-1397z" />
<glyph unicode="&#x44a;" horiz-adv-x="1429" d="M33 774v291h655v-291h230q213 0 327.5 -100.5t114.5 -282.5q0 -185 -114.5 -288t-327.5 -103h-586v774h-299zM688 291h176q78 0 109 27.5t31 80.5q0 57 -31 85t-109 28h-176v-221z" />
<glyph unicode="&#x44b;" horiz-adv-x="1798" d="M141 0v1065h357v-291h209q213 0 327.5 -100.5t114.5 -282.5q0 -185 -114.5 -288t-327.5 -103h-566zM498 291h155q78 0 109 27.5t31 80.5q0 57 -31 85t-109 28h-155v-221zM1300 0v1065h357v-1065h-357z" />
<glyph unicode="&#x44c;" horiz-adv-x="1239" d="M141 0v1065h357v-291h229q213 0 327.5 -100.5t114.5 -282.5q0 -185 -114.5 -288t-327.5 -103h-586zM498 291h176q77 0 108 27.5t31 80.5q0 57 -30.5 85t-108.5 28h-176v-221z" />
<glyph unicode="&#x44d;" horiz-adv-x="1245" d="M86 360h330q7 -56 56.5 -89t123.5 -33q87 0 139 46.5t66 125.5h-314v258h310q-18 73 -69 116t-134 43q-141 0 -162 -98h-328q30 167 163.5 265t338.5 98q245 0 400 -155t155 -405q0 -252 -154.5 -405.5t-402.5 -153.5q-213 0 -353 106.5t-165 280.5z" />
<glyph unicode="&#x44e;" horiz-adv-x="1849" d="M141 0v1065h348v-373h170q47 186 192.5 293t352.5 107q248 0 404.5 -156.5t156.5 -403.5t-156.5 -403t-404.5 -156q-215 0 -362.5 115t-188.5 313h-164v-401h-348zM985 532q0 -120 53 -194t160 -74q105 0 158 74t53 194q0 118 -53 193.5t-158 75.5q-107 0 -160 -75.5 t-53 -193.5z" />
<glyph unicode="&#x44f;" horiz-adv-x="1249" d="M92 688q0 178 121.5 277.5t347.5 99.5h549v-1065h-356v317h-193l-121 -317h-346l152 393q-154 95 -154 295zM440 680q0 -58 32 -85.5t116 -27.5h166v219h-166q-83 0 -115.5 -27t-32.5 -79z" />
<glyph unicode="&#x451;" horiz-adv-x="1257" d="M84 532q0 259 149.5 409.5t401.5 150.5t395.5 -142t143.5 -383v-82h-738q21 -221 213 -221q65 0 102 19t54 61h360q-36 -178 -167 -274.5t-355 -96.5q-256 0 -407.5 149.5t-151.5 409.5zM287 1157v297h284v-297h-284zM451 698h358q-27 140 -174 140q-76 0 -119.5 -35 t-64.5 -105zM709 1157v297h284v-297h-284z" />
<glyph unicode="&#x452;" horiz-adv-x="1382" d="M45 1116v215h139v158h357v-158h342v-215h-342v-248h57q51 61 113.5 91t160.5 30q381 0 381 -448v-559q0 -392 -446 -392h-135v291h94q66 0 98.5 35.5t32.5 95.5v469q0 94 -42.5 145.5t-125.5 51.5q-87 0 -137.5 -63.5t-50.5 -155.5v-459h-357v1116h-139z" />
<glyph unicode="&#x453;" horiz-adv-x="1097" d="M141 0v1065h899v-291h-542v-774h-357zM340 1192l197 297h364l-250 -297h-311z" />
<glyph unicode="&#x454;" horiz-adv-x="1247" d="M84 532q0 250 155 405t400 155q205 0 338.5 -98t163.5 -265h-328q-21 98 -162 98q-83 0 -133.5 -43t-68.5 -116h309v-258h-314q14 -79 66 -125.5t139 -46.5q74 0 123.5 33t56.5 89h330q-25 -174 -165 -280.5t-353 -106.5q-248 0 -402.5 153.5t-154.5 405.5z" />
<glyph unicode="&#x455;" horiz-adv-x="1157" d="M70 350h352q15 -123 170 -123q65 0 100 24.5t35 67.5t-30.5 64.5t-98.5 32.5l-188 30q-306 53 -306 299q0 72 28 133t84 110t148.5 76.5t213.5 27.5q205 0 328.5 -89t142.5 -239h-351q-15 78 -129 78q-46 0 -77 -19t-31 -53t21.5 -51t64.5 -23l174 -24 q170 -22 266 -105.5t96 -238.5q0 -70 -31 -132.5t-90.5 -113t-156 -80t-217.5 -29.5q-243 0 -373.5 100.5t-144.5 276.5z" />
<glyph unicode="&#x456;" horiz-adv-x="638" d="M141 0v1065h357v-1065h-357zM141 1192v297h357v-297h-357z" />
<glyph unicode="&#x457;" horiz-adv-x="638" d="M-31 1192v297h285v-297h-285zM141 0v1065h357v-1065h-357zM391 1192v297h285v-297h-285z" />
<glyph unicode="&#x458;" horiz-adv-x="661" d="M-61 -119h94q66 0 98.5 35.5t32.5 95.5v1053h356v-1083q0 -392 -446 -392h-135v291zM164 1192v297h356v-297h-356z" />
<glyph unicode="&#x459;" horiz-adv-x="1972" d="M41 0v342h39q100 0 143 55t43 199v469h965v-291h229q214 0 328.5 -100.5t114.5 -282.5q0 -185 -115 -288t-328 -103h-586v774h-282v-192q0 -213 -57.5 -342t-168 -184.5t-286.5 -55.5h-39zM1231 291h176q77 0 108 27.5t31 80.5q0 57 -30.5 85t-108.5 28h-176v-221z" />
<glyph unicode="&#x45a;" horiz-adv-x="1951" d="M141 0v1065h357v-373h356v373h356v-291h230q213 0 327.5 -100.5t114.5 -282.5q0 -185 -114.5 -288t-327.5 -103h-586v401h-356v-401h-357zM1210 291h176q78 0 109 27.5t31 80.5q0 57 -31 85t-109 28h-176v-221z" />
<glyph unicode="&#x45b;" horiz-adv-x="1382" d="M45 1116v215h139v158h357v-158h342v-215h-342v-248h57q51 61 113.5 91t160.5 30q381 0 381 -448v-541h-356v481q0 94 -42.5 145.5t-125.5 51.5q-87 0 -137.5 -63.5t-50.5 -155.5v-459h-357v1116h-139z" />
<glyph unicode="&#x45c;" horiz-adv-x="1316" d="M141 0v1065h357v-371h186l190 371h361l-262 -514l278 -551h-368l-203 403h-182v-403h-357zM494 1192l196 297h365l-250 -297h-311z" />
<glyph unicode="&#x45e;" horiz-adv-x="1286" d="M33 1065h356l240 -516h57l215 516h352l-645 -1475h-352l223 527zM240 1462h270q31 -94 135 -94t135 94h271q-19 -146 -121 -229.5t-285 -83.5t-284.5 83t-120.5 230z" />
<glyph unicode="&#x45f;" horiz-adv-x="1335" d="M141 0v1065h357v-774h340v774h356v-1065h-360v-313h-332v313h-361z" />
<glyph unicode="&#x490;" horiz-adv-x="1325" d="M158 0v1462h710v307h381v-643h-710v-1126h-381z" />
<glyph unicode="&#x491;" horiz-adv-x="1073" d="M141 0v1065h543v293h332v-584h-518v-774h-357z" />
<glyph unicode="&#x492;" horiz-adv-x="1388" d="M39 582v286h182v594h1092v-334h-711v-260h369v-286h-369v-582h-381v582h-182z" />
<glyph unicode="&#x493;" horiz-adv-x="1112" d="M41 328v243h139v494h875v-289h-518v-205h321v-243h-321v-328h-357v328h-139z" />
<glyph unicode="&#x49a;" horiz-adv-x="1636" d="M158 0v1462h381v-538h295l251 538h383l-327 -710l190 -416h258v-694h-368v358h-117l-268 582h-297v-582h-381z" />
<glyph unicode="&#x49b;" horiz-adv-x="1382" d="M141 0v1065h357v-371h186l190 371h361l-262 -514l131 -260h213v-584h-332v293h-102l-203 403h-182v-403h-357z" />
<glyph unicode="&#x4a2;" horiz-adv-x="1716" d="M158 0v1462h381v-540h542v540h381v-1126h207v-694h-369v358h-219v580h-542v-580h-381z" />
<glyph unicode="&#x4a3;" horiz-adv-x="1460" d="M141 0v1065h357v-373h356v373h356v-774h185v-584h-332v293h-209v401h-356v-401h-357z" />
<glyph unicode="&#x4ae;" horiz-adv-x="1435" d="M27 1462h393l268 -532h57l267 532h397l-502 -964v-498h-381v500z" />
<glyph unicode="&#x4af;" horiz-adv-x="1230" d="M39 1065h358l178 -846h91l168 846h358l-256 -1145h-152v-330h-356v330h-139z" />
<glyph unicode="&#x4b0;" horiz-adv-x="1435" d="M27 1462h393l268 -532h57l267 532h397l-395 -760h258v-286h-365v-416h-381v416h-364v286h258z" />
<glyph unicode="&#x4b1;" horiz-adv-x="1275" d="M39 1065h358l178 -846h91l168 846h358l-240 -1065h148v-209h-316v-201h-356v201h-319v209h161z" />
<glyph unicode="&#x4ba;" horiz-adv-x="1478" d="M158 0v1462h381v-532q129 33 295 33q85 0 156 -9t123 -23t93.5 -38.5t68.5 -48.5t46.5 -60t30 -66t16 -73t7 -75t1.5 -78v-492h-381v416q0 29 -1 45t-6 42t-14.5 40.5t-29 32.5t-47.5 27.5t-70.5 16.5t-97.5 7q-95 0 -190 -27v-600h-381z" />
<glyph unicode="&#x4bb;" horiz-adv-x="1339" d="M141 0v1489h357v-518h57q51 61 113.5 91t160.5 30q381 0 381 -449v-643h-356v584q0 94 -42.5 145t-125.5 51q-87 0 -137.5 -63.5t-50.5 -155.5v-561h-357z" />
<glyph unicode="&#x4d8;" horiz-adv-x="1595" d="M94 801q0 11 1 33t1 34h1004q-18 134 -98.5 213.5t-215.5 79.5q-93 0 -154.5 -34.5t-84.5 -100.5h-395q38 210 202.5 336.5t423.5 126.5q232 0 397 -99t245.5 -268t80.5 -391q0 -164 -45.5 -301.5t-132.5 -240t-223 -159.5t-307 -57q-335 0 -517 213t-182 615zM475 582 q13 -129 89.5 -205t217.5 -76q136 0 217 75t99 206h-623z" />
<glyph unicode="&#x4d9;" horiz-adv-x="1251" d="M84 547q0 44 2 67h731q-11 89 -64.5 139t-144.5 50q-135 0 -162 -82h-352q30 169 168.5 270t349.5 101q250 0 402.5 -154t152.5 -406t-150 -405.5t-396 -153.5q-245 0 -391 146.5t-146 427.5zM434 403q4 -86 53 -132t134 -46q179 0 194 178h-381z" />
<glyph unicode="&#x4e8;" horiz-adv-x="1650" d="M94 731q0 163 48.5 301.5t139 240t230 159t313.5 57.5t313.5 -57.5t230 -159t139 -240t48.5 -301.5t-48.5 -301.5t-139 -240t-230 -159t-313.5 -57.5t-313.5 57.5t-230 159t-139 240t-48.5 301.5zM487 592q24 -136 111.5 -213.5t226.5 -77.5t225.5 77.5t110.5 213.5h-674 zM489 879h670q-24 131 -110.5 206.5t-223.5 75.5q-138 0 -225 -75t-111 -207z" />
<glyph unicode="&#x4e9;" horiz-adv-x="1304" d="M84 532q0 256 156 408t413 152q258 0 413 -151.5t155 -408.5t-155 -408t-413 -151q-257 0 -413 151.5t-156 407.5zM434 430q18 -83 73 -130.5t146 -47.5q89 0 143 47.5t72 130.5h-434zM436 643h430q-18 79 -72 124.5t-141 45.5q-89 0 -144 -46t-73 -124z" />
<glyph unicode="&#x2000;" horiz-adv-x="925" />
<glyph unicode="&#x2001;" horiz-adv-x="1851" />
<glyph unicode="&#x2002;" horiz-adv-x="925" />
<glyph unicode="&#x2003;" horiz-adv-x="1851" />
<glyph unicode="&#x2004;" horiz-adv-x="617" />
<glyph unicode="&#x2005;" horiz-adv-x="462" />
<glyph unicode="&#x2006;" horiz-adv-x="308" />
<glyph unicode="&#x2007;" horiz-adv-x="308" />
<glyph unicode="&#x2008;" horiz-adv-x="231" />
<glyph unicode="&#x2009;" horiz-adv-x="370" />
<glyph unicode="&#x200a;" horiz-adv-x="102" />
<glyph unicode="&#x2010;" horiz-adv-x="845" d="M92 434v305h662v-305h-662z" />
<glyph unicode="&#x2011;" horiz-adv-x="845" d="M92 434v305h662v-305h-662z" />
<glyph unicode="&#x2012;" horiz-adv-x="845" d="M92 434v305h662v-305h-662z" />
<glyph unicode="&#x2013;" horiz-adv-x="1275" d="M84 457v262h1108v-262h-1108z" />
<glyph unicode="&#x2014;" horiz-adv-x="1800" d="M84 457v262h1632v-262h-1632z" />
<glyph unicode="&#x2018;" d="M133 782v414l184 266h215l-184 -266v-57h162v-357h-377z" />
<glyph unicode="&#x2019;" d="M111 782l184 267v57h-162v356h377v-413l-184 -267h-215z" />
<glyph unicode="&#x201a;" d="M111 -324l184 267v57h-162v356h377v-413l-184 -267h-215z" />
<glyph unicode="&#x201c;" horiz-adv-x="1157" d="M133 782v414l184 266h215l-184 -266v-57h162v-357h-377zM647 782v414l184 266h216l-185 -266v-57h162v-357h-377z" />
<glyph unicode="&#x201d;" horiz-adv-x="1157" d="M111 782l184 267v57h-162v356h377v-413l-184 -267h-215zM625 782l184 267v57h-162v356h377v-413l-184 -267h-215z" />
<glyph unicode="&#x201e;" horiz-adv-x="1157" d="M111 -324l184 267v57h-162v356h377v-413l-184 -267h-215zM625 -324l184 267v57h-162v356h377v-413l-184 -267h-215z" />
<glyph unicode="&#x2022;" horiz-adv-x="835" d="M117 729q0 125 88.5 213t212.5 88t212.5 -88t88.5 -213t-88.5 -213t-212.5 -88t-212.5 88t-88.5 213z" />
<glyph unicode="&#x2026;" horiz-adv-x="1822" d="M133 0v356h377v-356h-377zM723 0v356h377v-356h-377zM1313 0v356h377v-356h-377z" />
<glyph unicode="&#x202f;" horiz-adv-x="370" />
<glyph unicode="&#x2039;" horiz-adv-x="880" d="M100 504v188l310 322h370l-362 -387v-58l362 -387h-370z" />
<glyph unicode="&#x203a;" horiz-adv-x="890" d="M111 182l362 387v58l-362 387h370l310 -322v-188l-310 -322h-370z" />
<glyph unicode="&#x205f;" horiz-adv-x="462" />
<glyph unicode="&#x20ac;" horiz-adv-x="1474" d="M31 496l51 157h129q-6 41 -2 111h-178l53 158h141q46 249 199 394.5t397 145.5q223 0 368.5 -127.5t178.5 -337.5h-360q-35 146 -187 146q-189 0 -231 -221h371l-54 -158h-338q-4 -76 2 -111h297l-51 -157h-225q24 -101 79.5 -152t151.5 -51q86 0 136 48t61 140h358 q-33 -232 -178 -370t-379 -138q-239 0 -390 139t-202 384h-198z" />
<glyph unicode="&#x2122;" horiz-adv-x="1771" d="M41 1278v184h670v-184h-232v-596h-209v596h-229zM842 682v780h305l88 -280h35l86 280h305v-780h-191v528h-36l-91 -280h-184l-90 280h-37v-528h-190z" />
<glyph unicode="&#x25fc;" horiz-adv-x="1064" d="M0 0v1065h1065v-1065h-1065z" />
</font>
</defs>
</svg>
